<svg xmlns="http://www.w3.org/2000/svg" width="1993" height="863" viewBox="0 0 1993 863" version="1.1"><path d="M 326.517 214.250 C 325.658 217.137, 323.406 227.150, 321.513 236.500 C 310.986 288.470, 309.242 329.561, 316.497 354.619 C 318.363 361.062, 319.838 362.263, 326.854 363.053 C 333.684 363.823, 337.351 362.721, 338.841 359.449 C 340.817 355.112, 343.868 341.766, 345.115 332 C 347.384 314.231, 343.050 264.664, 336.413 232.500 C 334.484 223.149, 329.973 209, 328.921 209 C 328.457 209, 327.375 211.363, 326.517 214.250 M 325.313 377.127 C 320.612 378.451, 318 382.334, 318 388 C 318 393.871, 320.600 397.500, 325.956 399.105 C 331.282 400.701, 336.741 398.055, 339.412 392.584 C 341.147 389.030, 341.193 388.298, 339.912 384.674 C 337.671 378.338, 331.798 375.301, 325.313 377.127 M 350.801 389.750 C 347.112 393.693, 345 398.348, 345 402.537 C 345 405.635, 345.925 407.138, 351.250 412.694 C 359.760 421.572, 378.227 433.689, 397.500 443.038 C 424.310 456.044, 470.320 473.013, 472.599 470.735 C 474.494 468.840, 470.897 464.123, 459.747 453.882 C 438.985 434.811, 412.460 413.579, 398.188 404.607 C 386.190 397.065, 362.135 387, 356.107 387 C 354.416 387, 352.393 388.048, 350.801 389.750 M 289 390.899 C 265.879 399.535, 249.467 410.473, 209.936 443.594 C 189.186 460.979, 183.362 466.894, 184.380 469.549 C 185.246 471.805, 187.437 471.380, 204.534 465.637 C 236.163 455.013, 271.662 439.047, 288.477 427.883 C 296.219 422.743, 311.220 409.327, 313.051 405.904 C 314.313 403.546, 311.581 394.844, 308.386 391.047 C 306.187 388.434, 305.159 388.007, 301.161 388.049 C 298.597 388.075, 293.125 389.358, 289 390.899 M 322.557 422.223 C 321.178 424.191, 321 434.042, 321 508.500 C 321 600.720, 320.689 596.088, 326.965 597.343 C 330.220 597.994, 334.981 596.627, 336.214 594.687 C 336.630 594.034, 336.976 555.463, 336.985 508.973 C 337.002 413.026, 337.628 420, 329 420 C 325.084 420, 323.804 420.441, 322.557 422.223 M 1449.500 508.647 C 1424.698 512.638, 1403.925 527.407, 1393.604 548.386 C 1387.350 561.100, 1385.530 569.557, 1385.620 585.500 C 1385.712 601.933, 1387.557 610.244, 1393.864 622.630 C 1403.753 642.048, 1420.587 655.484, 1441.500 660.649 C 1452.451 663.355, 1471.431 663.113, 1481 660.147 C 1490.431 657.224, 1497.412 653.277, 1503.858 647.225 L 1508.898 642.494 1511.061 651.247 L 1513.224 660 1522.623 660 L 1532.021 660 1531.761 616.750 L 1531.500 573.500 1496.250 573.237 L 1461 572.974 1461 587.987 L 1461 603 1479.020 603 L 1497.041 603 1494.876 607.250 C 1489.826 617.165, 1483.003 622.722, 1472.530 625.450 C 1452.703 630.614, 1434.575 622.420, 1426.420 604.607 C 1419.836 590.224, 1421.092 573.433, 1429.737 560.266 C 1433.974 553.813, 1437.874 550.446, 1445 547.090 C 1449.827 544.817, 1451.785 544.500, 1461 544.500 C 1470.255 544.500, 1472.166 544.812, 1477.120 547.135 C 1480.211 548.585, 1484.541 551.397, 1486.741 553.385 C 1488.942 555.373, 1491.028 557, 1491.377 557 C 1492.471 557, 1521 537.723, 1521 536.984 C 1521 535.326, 1512.292 526.598, 1506.641 522.592 C 1492.933 512.875, 1481.401 509.070, 1464 508.524 C 1457.675 508.326, 1451.150 508.381, 1449.500 508.647 M 621 585.500 L 621 660 668 660 L 715 660 715 642.500 L 715 625 686.500 625 L 658 625 658 613 L 658 601 682 601 L 706 601 706 584.500 L 706 568 682 568 L 658 568 658 557 L 658 546 685.500 546 L 713 546 713 528.500 L 713 511 667 511 L 621 511 621 585.500 M 799 585.500 L 799 660 817.489 660 L 835.979 660 836.239 617.270 L 836.500 574.541 865 617.229 L 893.500 659.917 909.750 659.959 L 926 660 926 585.500 L 926 511 907.500 511 L 889 511 889 553.732 L 889 596.465 860.474 553.732 L 831.949 511 815.474 511 L 799 511 799 585.500 M 1015 585.500 L 1015 660 1062 660 L 1109 660 1109 642.500 L 1109 625 1080.500 625 L 1052 625 1052 613 L 1052 601 1076 601 L 1100 601 1100 584.500 L 1100 568 1076 568 L 1052 568 1052 557 L 1052 546 1079.500 546 L 1107 546 1107 528.500 L 1107 511 1061 511 L 1015 511 1015 585.500 M 1193 585.434 L 1193 660 1211.500 660 L 1230 660 1230 634.967 L 1230 609.934 1241.250 610.217 L 1252.500 610.500 1265 635.249 L 1277.500 659.998 1297.345 659.999 L 1317.191 660 1314.241 654.750 C 1304.120 636.734, 1286 602.916, 1286 602.042 C 1286 601.469, 1286.424 601, 1286.943 601 C 1287.462 601, 1290.591 598.495, 1293.898 595.434 C 1304.301 585.803, 1308.745 573.731, 1307.679 558 C 1306.228 536.587, 1294.831 521.432, 1274.719 514.176 C 1267.509 511.574, 1267.453 511.571, 1230.250 511.220 L 1193 510.869 1193 585.434 M 1618 585.500 L 1618 660 1636.500 660 L 1655 660 1655 585.500 L 1655 511 1636.500 511 L 1618 511 1618 585.500 M 1784.719 515.231 C 1783.905 517.579, 1771.935 550.894, 1758.119 589.264 C 1744.304 627.635, 1733 659.247, 1733 659.514 C 1733 659.781, 1741.709 660, 1752.354 660 L 1771.707 660 1775.396 648.250 C 1777.425 641.788, 1779.414 635.678, 1779.816 634.674 C 1780.497 632.973, 1782.454 632.836, 1808.304 632.674 L 1836.061 632.500 1840.319 646 L 1844.577 659.500 1863.789 659.772 C 1874.355 659.921, 1883 659.661, 1883 659.194 C 1883 658.199, 1880.191 650.306, 1851.619 571 L 1830.183 511.500 1808.192 511.231 L 1786.201 510.962 1784.719 515.231 M 1807.621 546 C 1807.285 546.825, 1803.044 560.100, 1798.197 575.500 L 1789.385 603.500 1807.837 603.773 C 1817.985 603.923, 1826.432 603.901, 1826.608 603.726 C 1826.842 603.491, 1811.226 553.044, 1808.583 545.500 C 1808.390 544.950, 1807.958 545.175, 1807.621 546 M 1230 562.520 L 1230 579.188 1244.250 578.821 C 1260.364 578.407, 1264.902 576.927, 1268.393 570.949 C 1271.055 566.391, 1270.929 558.239, 1268.127 553.706 C 1264.475 547.796, 1260.509 546.546, 1244.250 546.176 L 1230 545.852 1230 562.520" stroke="none" fill="#dc5304" fill-rule="evenodd"/><path d="M 701 112.393 C 701 114.651, 698.618 115, 683.168 115.003 C 653.301 115.008, 627.914 116.229, 626.410 117.733 C 625.260 118.883, 625 124.648, 625 149.036 C 625 178.831, 625.007 178.934, 627.205 180.110 C 628.824 180.976, 634.064 181.081, 646.955 180.504 C 656.605 180.072, 669.675 179.501, 676 179.235 C 682.325 178.969, 694.700 178.402, 703.500 177.975 C 798.262 173.380, 836.412 184.592, 836.297 217 C 836.248 230.782, 829.354 242.353, 818 247.708 C 811.689 250.685, 795.607 251.999, 765.447 252.003 C 751.726 252.005, 735.325 252.487, 729 253.074 C 716.690 254.217, 693.637 258.736, 683 262.092 C 667.689 266.923, 653.161 276.575, 645.067 287.294 C 629.611 307.766, 625.026 336.199, 625.009 411.679 C 625.001 445.061, 625.197 450.055, 626.571 451.429 C 627.927 452.784, 632.089 453, 656.880 453 C 678.325 453, 686.036 452.683, 687.265 451.750 C 688.748 450.624, 688.945 445.397, 689.250 399 C 689.580 348.796, 689.644 347.352, 691.791 341.601 C 695.642 331.292, 702.952 323.692, 712.134 320.453 C 717.564 318.537, 746.987 316.318, 784.311 315.009 C 800.365 314.446, 817.032 313.511, 821.350 312.931 C 860.910 307.619, 888.800 282.892, 898.533 244.500 C 904.591 220.608, 902.217 194.284, 892.029 172.381 C 879.824 146.141, 859.793 129.753, 831.063 122.504 C 825.323 121.056, 819.698 119.344, 818.563 118.701 C 817.428 118.058, 812.900 117.222, 808.500 116.843 C 804.100 116.464, 797.800 115.589, 794.500 114.897 C 790.259 114.008, 776.067 113.619, 746.084 113.569 C 713.091 113.515, 703.576 113.222, 703.251 112.250 C 702.684 110.554, 701 110.661, 701 112.393 M 272 116.705 C 267.472 117.487, 255.625 121.177, 248.269 124.095 C 235.848 129.023, 211.586 140.190, 209.668 141.862 C 208.202 143.139, 207.951 144.365, 208.414 147.980 C 208.732 150.466, 209.271 156.612, 209.611 161.638 C 210.521 175.103, 209.813 176.560, 198.169 185.179 C 192.851 189.115, 184.450 196.369, 179.500 201.298 C 165.658 215.082, 160.864 216.381, 144.399 210.812 C 137.034 208.320, 134.394 207.828, 132.318 208.562 C 129.102 209.698, 116.861 229.667, 105.384 252.500 C 94.514 274.127, 94.544 275.778, 106.049 288.473 C 109.443 292.218, 112.846 296.780, 113.610 298.609 C 115.536 303.220, 115.347 309.694, 113.036 318.239 C 111.956 322.232, 110.191 331.700, 109.112 339.277 C 106.696 356.258, 104.670 360.958, 98.154 364.702 C 95.594 366.173, 92.427 368.192, 91.115 369.188 C 89.803 370.185, 87.266 371, 85.476 371 C 78.079 371, 75.368 377.464, 77.010 391.191 C 77.557 395.761, 78.412 402.200, 78.911 405.500 C 80.268 414.473, 87.761 444.637, 89.440 447.885 C 91.311 451.501, 94.611 452.718, 104.240 453.342 C 113.652 453.953, 121.587 457.269, 125.265 462.129 C 126.668 463.983, 129.660 469.506, 131.914 474.402 C 134.167 479.298, 138.938 487.645, 142.516 492.951 C 152.659 507.993, 153.291 515.538, 145.372 527.050 C 140.510 534.118, 139.991 538.602, 143.367 544.363 C 145.792 548.502, 149.709 552.163, 179.359 578 C 189.716 587.025, 194.376 589.624, 198.395 588.616 C 199.760 588.273, 203.717 585.688, 207.188 582.871 C 220.281 572.246, 228.614 571.129, 242.900 578.085 C 258.521 585.690, 266.116 587.568, 267.837 584.250 C 269.420 581.196, 270.062 573.623, 269.037 570.090 C 267.439 564.581, 264.344 562.236, 248.500 554.530 C 221.132 541.218, 200.985 526.083, 183.267 505.525 C 160.370 478.959, 144.752 446.766, 137.382 410.948 C 134.806 398.427, 134.612 395.776, 134.558 372.500 C 134.511 352.229, 134.851 345.609, 136.355 337.500 C 143.969 296.454, 164.425 256.250, 192.494 227.165 C 217.138 201.630, 245.097 185.739, 280.500 177.146 C 330.933 164.905, 381.696 171.065, 422.968 194.433 C 456.933 213.664, 483.637 242.708, 502.082 280.480 C 531.398 340.513, 531.881 402.548, 503.482 460.500 C 481.347 505.670, 449.404 536.664, 404 557.027 C 395.058 561.038, 391.148 563.326, 390.265 565.067 C 389.585 566.405, 389.023 570.987, 389.015 575.250 C 389.002 581.698, 389.338 583.338, 391.015 585.015 C 393.651 587.651, 395.617 587.162, 410 580.302 C 424.581 573.346, 430.170 572.558, 438.348 576.302 C 441.422 577.709, 446.110 580.893, 448.766 583.378 C 455.392 589.575, 457.782 590.359, 462.635 587.923 C 467.553 585.453, 488.712 568.508, 500.748 557.399 C 515.792 543.514, 517.768 537.845, 511.254 527.259 C 507.114 520.530, 505.703 515.591, 506.202 509.572 C 506.561 505.245, 507.834 502.444, 513.761 492.934 C 517.682 486.645, 522.341 478.350, 524.116 474.500 C 528.845 464.244, 532.482 459.388, 537.746 456.303 C 541.757 453.952, 543.905 453.477, 552.734 452.987 C 565.871 452.258, 566.898 451.389, 570.445 438 C 573.990 424.614, 578.787 395.243, 579.243 384.121 L 579.628 374.743 576.064 373.343 C 565.369 369.141, 560.466 366.197, 555.964 361.270 C 550.168 354.928, 548.499 350.161, 547.014 335.702 C 546.404 329.763, 544.941 321.888, 543.763 318.202 C 540.901 309.250, 540.966 300.886, 543.945 295 C 545.197 292.525, 549.605 287.231, 553.739 283.234 C 560.969 276.247, 561.234 275.828, 560.658 272.282 C 559.224 263.440, 533.670 218.878, 525.948 211.750 C 522.274 208.359, 520.044 208.320, 511.596 211.500 C 503.962 214.374, 496.666 214.717, 491.218 212.459 C 489.173 211.612, 483.675 207.186, 479 202.625 C 474.325 198.063, 467.544 192.032, 463.930 189.223 C 455.160 182.404, 449.536 176.155, 448.011 171.535 C 446.811 167.897, 447.026 159.592, 448.616 148.231 C 449.011 145.409, 448.773 143.432, 447.914 142.397 C 443.249 136.775, 393.215 117, 383.656 117 C 378.183 117, 374.906 119.426, 370.979 126.384 C 366.432 134.440, 360.540 139.787, 354.167 141.640 C 349.450 143.011, 347.677 143.057, 341.319 141.969 C 336.220 141.097, 331.099 140.961, 324.722 141.529 C 309.097 142.922, 304.818 142.570, 299.025 139.417 C 293.381 136.345, 289.885 132.409, 285.419 124.098 C 283.393 120.327, 281.543 118.289, 279.290 117.348 C 277.516 116.607, 275.712 116.061, 275.282 116.136 C 274.852 116.211, 273.375 116.467, 272 116.705 M 1012.470 116.984 C 998.133 118.997, 986.283 124.977, 976.388 135.191 C 968.711 143.115, 964.942 148.722, 959.496 160.322 C 957.013 165.613, 936.059 227.102, 910.023 305.500 C 856.912 465.428, 863 446.766, 863 449.649 L 863 452 900.294 452 L 937.587 452 938.722 446.590 C 939.346 443.614, 942.701 432.141, 946.178 421.094 L 952.500 401.009 1023.572 401.004 L 1094.644 401 1101.803 423.250 C 1105.740 435.488, 1109.252 446.962, 1109.606 448.750 L 1110.250 452 1146.458 452 C 1166.373 452, 1182.928 451.739, 1183.247 451.419 C 1184.304 450.363, 1180.483 438.603, 1135.024 303 C 1088.130 163.112, 1085.258 155.358, 1075.573 142.500 C 1066.809 130.863, 1053.747 121.892, 1040.736 118.573 C 1033.225 116.657, 1020.067 115.917, 1012.470 116.984 M 1714.470 116.994 C 1700.170 118.978, 1688.290 124.970, 1678.388 135.191 C 1670.739 143.086, 1666.972 148.679, 1661.461 160.322 C 1656.878 170.004, 1566.144 441.522, 1565.239 448.262 L 1564.733 452.025 1602.094 451.762 L 1639.454 451.500 1640.564 446.497 C 1641.175 443.745, 1644.542 432.383, 1648.046 421.247 L 1654.417 401 1725.527 401 L 1796.636 401 1803.802 423.295 C 1807.743 435.557, 1811.257 447.037, 1811.611 448.807 L 1812.255 452.024 1848.877 451.762 L 1885.500 451.500 1885.198 449 C 1885.032 447.625, 1875.282 417.700, 1863.533 382.500 C 1803.761 203.428, 1791.678 167.968, 1787.490 159.340 C 1776.781 137.280, 1761.724 123.526, 1742.948 118.653 C 1735.603 116.747, 1721.970 115.953, 1714.470 116.994 M 1209 288 L 1209 452 1241.500 452 L 1274 452 1274 288 L 1274 124 1241.500 124 L 1209 124 1209 288 M 1299 126.338 C 1299 129.059, 1389.313 399.087, 1393.942 410.206 C 1399.882 424.475, 1409.394 437.947, 1418.500 444.989 C 1430.384 454.179, 1442.345 457.962, 1459.590 457.985 C 1488.986 458.024, 1507.750 445.533, 1521.905 416.500 C 1525.377 409.379, 1539.611 367.927, 1571.353 272.500 C 1595.868 198.800, 1616.816 135.232, 1617.903 131.238 L 1619.879 123.976 1581.752 124.238 L 1543.624 124.500 1542.241 130 C 1541.067 134.670, 1498.367 270.703, 1475.891 341.377 C 1466.779 370.033, 1466.258 371, 1459.934 371 C 1454.713 371, 1451.748 367.152, 1448.142 355.695 C 1446.550 350.638, 1429.910 298.350, 1411.164 239.500 C 1392.418 180.650, 1376.780 130.588, 1376.412 128.250 L 1375.744 124 1337.372 124 L 1299 124 1299 126.338 M 1021.500 201.815 C 1018.959 202.312, 1016.158 204.790, 1014.509 207.998 C 1013.801 209.374, 1007.507 228.725, 1000.522 251 C 993.537 273.275, 985.315 299.491, 982.252 309.257 C 979.188 319.024, 976.907 327.241, 977.184 327.517 C 977.460 327.794, 998.598 327.903, 1024.155 327.760 L 1070.624 327.500 1054.804 277.500 C 1046.103 250, 1037.624 223.131, 1035.962 217.791 C 1031.869 204.644, 1028.132 200.515, 1021.500 201.815 M 1723.500 201.932 C 1720.119 202.892, 1718.337 204.371, 1716.702 207.572 C 1715.839 209.261, 1706.960 236.711, 1696.970 268.572 C 1686.980 300.432, 1678.599 326.837, 1678.344 327.250 C 1678.090 327.663, 1699.256 328, 1725.380 328 L 1772.879 328 1771.468 323.750 C 1770.692 321.413, 1762.383 295.200, 1753.003 265.500 C 1743.624 235.800, 1735.475 210.307, 1734.895 208.849 C 1732.874 203.773, 1727.820 200.705, 1723.500 201.932 M 241.547 615.093 C 233.099 616.350, 229.318 617.782, 225.428 621.197 C 221.467 624.675, 219.478 630.498, 220.940 634.341 C 222.178 637.598, 231.140 644.698, 235.297 645.716 C 237.058 646.147, 279 646.262, 328.500 645.972 C 412.002 645.482, 418.897 645.313, 424 643.625 C 430.968 641.320, 432.169 640.213, 434.382 634.057 C 436.125 629.211, 436.124 628.917, 434.343 625.285 C 432.153 620.819, 427.669 617.611, 421.209 615.889 C 415.538 614.378, 251.246 613.649, 241.547 615.093 M 258.500 657.957 C 257.400 658.453, 254.475 658.901, 252 658.952 C 244.272 659.110, 237.379 663.243, 235.175 669.039 C 232.903 675.016, 239.828 684.800, 247.864 686.963 C 250.635 687.710, 276.420 687.962, 330.694 687.773 L 409.500 687.500 413.259 685.163 C 418.015 682.206, 422 675.535, 422 670.530 C 422 667.483, 421.305 666.080, 418.470 663.407 C 416.528 661.576, 413.266 659.538, 411.220 658.879 C 406.648 657.406, 261.659 656.530, 258.500 657.957 M 1721.526 697.950 C 1719.540 701.789, 1719.596 702.202, 1722.050 701.820 C 1723.177 701.644, 1725.021 700.038, 1726.148 698.250 L 1728.196 695 1725.624 695 C 1723.787 695, 1722.615 695.843, 1721.526 697.950 M 858.250 697.662 C 856.515 698.362, 856.675 702, 858.441 702 C 859.234 702, 860.123 701.610, 860.418 701.133 C 860.713 700.655, 862.805 700.760, 865.071 701.364 C 868.721 702.339, 869.348 702.245, 870.598 700.535 C 872.421 698.041, 870.782 696.031, 868.225 697.627 C 867.246 698.238, 865.635 698.365, 864.500 697.922 C 862.207 697.026, 860.049 696.936, 858.250 697.662 M 266 704.290 C 261.248 706.685, 262.267 709.106, 271.423 717.176 C 289.413 733.032, 314.275 740.840, 337.905 738.055 C 356.067 735.914, 370.727 729.006, 386 715.390 C 394.733 707.605, 395.594 706.421, 393.957 704.448 C 392.931 703.212, 383.646 703.002, 330.628 703.015 C 282.668 703.026, 267.930 703.317, 266 704.290 M 626.923 707.923 C 624.675 710.171, 624 711.762, 624 714.812 C 624 720.241, 626.310 722.660, 634 725.283 C 638.992 726.985, 640.570 727.993, 640.803 729.625 C 641.525 734.686, 633.034 737.034, 628.913 732.913 C 626.146 730.146, 621.381 730.974, 622.972 733.947 C 625.133 737.985, 629.041 740, 634.712 740 C 639.393 740, 640.562 739.592, 643.077 737.077 C 645.297 734.857, 646 733.226, 646 730.299 C 646 724.753, 643.810 722.288, 637.203 720.394 C 630.588 718.497, 629 717.443, 629 714.949 C 629 710.465, 635.592 708.333, 638.599 711.844 C 639.611 713.027, 641.043 713.523, 642.589 713.228 C 645.741 712.625, 645.630 711.477, 642.077 707.923 C 639.684 705.530, 638.310 705, 634.500 705 C 630.690 705, 629.316 705.530, 626.923 707.923 M 671.913 707.280 C 670.053 708.533, 667.519 711.346, 666.282 713.530 C 661.728 721.570, 664.292 732.585, 671.913 737.720 C 676.622 740.894, 685.370 740.908, 690.010 737.750 C 696.055 733.636, 697.500 730.694, 697.500 722.500 C 697.500 714.306, 696.055 711.364, 690.010 707.250 C 685.370 704.092, 676.622 704.106, 671.913 707.280 M 809.500 706.403 C 805.740 708.062, 803.505 710.547, 801.538 715.254 C 797.616 724.642, 801.627 735.326, 810.530 739.206 C 812.163 739.918, 813.500 741.175, 813.500 742 C 813.500 742.825, 814.175 743.512, 815 743.526 C 815.825 743.541, 817.084 743.919, 817.799 744.365 C 819.676 745.540, 817.395 748.004, 814.693 747.721 C 813.371 747.583, 812.446 748.154, 812.218 749.250 C 811.920 750.678, 812.566 751, 815.727 751 C 817.857 751, 820.140 750.460, 820.800 749.800 C 822.707 747.893, 822.234 743.277, 819.967 741.690 C 818.031 740.333, 818.113 740.237, 821.717 739.645 C 823.798 739.304, 826.774 737.997, 828.332 736.741 L 831.163 734.458 829.130 732.618 C 827.152 730.828, 827.025 730.835, 824.414 732.889 C 818.181 737.792, 808.188 734.124, 806.039 726.145 C 802.988 714.814, 814.011 706.051, 823.805 712.022 C 826.659 713.762, 827.373 713.852, 829.043 712.682 C 830.939 711.355, 830.933 711.287, 828.739 709.289 C 827.507 708.167, 825.517 706.744, 824.316 706.125 C 821.381 704.614, 813.206 704.767, 809.500 706.403 M 854.913 707.280 C 853.053 708.533, 850.519 711.346, 849.282 713.530 C 844.728 721.570, 847.292 732.585, 854.913 737.720 C 859.622 740.894, 868.370 740.908, 873.010 737.750 C 879.055 733.636, 880.500 730.694, 880.500 722.500 C 880.500 714.306, 879.055 711.364, 873.010 707.250 C 868.370 704.092, 859.622 704.106, 854.913 707.280 M 941.923 707.923 C 939.675 710.171, 939 711.762, 939 714.812 C 939 720.241, 941.310 722.660, 949 725.283 C 953.992 726.985, 955.570 727.993, 955.803 729.625 C 956.525 734.686, 948.034 737.034, 943.913 732.913 C 941.146 730.146, 936.381 730.974, 937.972 733.947 C 940.133 737.985, 944.041 740, 949.712 740 C 954.393 740, 955.562 739.592, 958.077 737.077 C 960.297 734.857, 961 733.226, 961 730.299 C 961 724.753, 958.810 722.288, 952.203 720.394 C 945.588 718.497, 944 717.443, 944 714.949 C 944 710.465, 950.592 708.333, 953.599 711.844 C 954.611 713.027, 956.043 713.523, 957.589 713.228 C 960.741 712.625, 960.630 711.477, 957.077 707.923 C 954.684 705.530, 953.310 705, 949.500 705 C 945.690 705, 944.316 705.530, 941.923 707.923 M 1301.389 706.905 C 1290.570 713.502, 1290.354 730.695, 1301 737.830 C 1305.808 741.052, 1315.640 740.627, 1319.468 737.030 L 1322 734.651 1322 736.826 C 1322 738.333, 1322.613 739, 1324 739 C 1325.852 739, 1326 738.333, 1326 730 L 1326 721 1318 721 C 1310.133 721, 1310 721.042, 1310 723.500 C 1310 725.864, 1310.300 726, 1315.500 726 C 1318.525 726, 1321 726.204, 1321 726.453 C 1321 728.411, 1318.113 732.407, 1315.855 733.575 C 1308.920 737.161, 1301.036 733.562, 1298.963 725.862 C 1295.980 714.786, 1307.048 706.073, 1316.657 711.932 C 1319.333 713.564, 1320.088 713.656, 1321.619 712.537 C 1323.181 711.394, 1323.237 710.991, 1322.035 709.542 C 1318.087 704.786, 1307.154 703.389, 1301.389 706.905 M 1420.923 707.923 C 1418.675 710.171, 1418 711.762, 1418 714.812 C 1418 720.241, 1420.310 722.660, 1428 725.283 C 1432.992 726.985, 1434.570 727.993, 1434.803 729.625 C 1435.525 734.686, 1427.034 737.034, 1422.913 732.913 C 1420.146 730.146, 1415.381 730.974, 1416.972 733.947 C 1419.133 737.985, 1423.041 740, 1428.712 740 C 1433.393 740, 1434.562 739.592, 1437.077 737.077 C 1439.297 734.857, 1440 733.226, 1440 730.299 C 1440 724.753, 1437.810 722.288, 1431.203 720.394 C 1424.588 718.497, 1423 717.443, 1423 714.949 C 1423 710.366, 1429.428 708.396, 1432.750 711.962 C 1433.962 713.263, 1435.322 713.729, 1436.789 713.345 C 1439.729 712.576, 1439.578 711.424, 1436.077 707.923 C 1433.684 705.530, 1432.310 705, 1428.500 705 C 1424.690 705, 1423.316 705.530, 1420.923 707.923 M 1620.913 707.280 C 1619.053 708.533, 1616.519 711.346, 1615.282 713.530 C 1610.728 721.570, 1613.292 732.585, 1620.913 737.720 C 1625.622 740.894, 1634.370 740.908, 1639.010 737.750 C 1645.055 733.636, 1646.500 730.694, 1646.500 722.500 C 1646.500 714.306, 1645.055 711.364, 1639.010 707.250 C 1634.370 704.092, 1625.622 704.106, 1620.913 707.280 M 1863.923 707.923 C 1861.675 710.171, 1861 711.762, 1861 714.812 C 1861 720.241, 1863.310 722.660, 1871 725.283 C 1875.992 726.985, 1877.570 727.993, 1877.803 729.625 C 1878.525 734.686, 1870.034 737.034, 1865.913 732.913 C 1863.146 730.146, 1858.381 730.974, 1859.972 733.947 C 1862.133 737.985, 1866.041 740, 1871.712 740 C 1876.393 740, 1877.562 739.592, 1880.077 737.077 C 1882.297 734.857, 1883 733.226, 1883 730.299 C 1883 724.753, 1880.810 722.288, 1874.203 720.394 C 1867.588 718.497, 1866 717.443, 1866 714.949 C 1866 710.465, 1872.592 708.333, 1875.599 711.844 C 1876.611 713.027, 1878.043 713.523, 1879.589 713.228 C 1882.741 712.625, 1882.630 711.477, 1879.077 707.923 C 1876.684 705.530, 1875.310 705, 1871.500 705 C 1867.690 705, 1866.316 705.530, 1863.923 707.923 M 717 722.500 L 717 739 726.500 739 C 735.967 739, 736 738.991, 736 736.500 C 736 734.071, 735.800 734, 729 734 L 722 734 722 720 L 722 706 719.500 706 L 717 706 717 722.500 M 755 718.550 C 755 736.198, 757.304 740, 768 740 C 778.696 740, 781 736.198, 781 718.550 L 781 706 778.603 706 C 776.221 706, 776.203 706.080, 775.853 718.396 C 775.555 728.868, 775.204 731.118, 773.595 732.896 C 771.179 735.564, 766.033 735.657, 762.861 733.089 C 760.646 731.295, 760.478 730.400, 760.147 718.589 C 759.796 706.070, 759.781 706, 757.397 706 L 755 706 755 718.550 M 900 722.500 L 900 739 909.500 739 C 918.967 739, 919 738.991, 919 736.500 C 919 734.071, 918.800 734, 912 734 L 905 734 905 729 L 905 724 911.500 724 C 917.767 724, 918 723.910, 918 721.500 C 918 719.090, 917.767 719, 911.500 719 L 905 719 905 715 L 905 711 912 711 C 918.800 711, 919 710.929, 919 708.500 C 919 706.009, 918.967 706, 909.500 706 L 900 706 900 722.500 M 1007 722.500 L 1007 739 1016.500 739 C 1025.967 739, 1026 738.991, 1026 736.500 C 1026 734.071, 1025.800 734, 1019 734 L 1012 734 1012 729 L 1012 724 1018.500 724 C 1024.767 724, 1025 723.910, 1025 721.500 C 1025 719.090, 1024.767 719, 1018.500 719 L 1012 719 1012 715 L 1012 711 1019 711 C 1025.800 711, 1026 710.929, 1026 708.500 C 1026 706.009, 1025.967 706, 1016.500 706 L 1007 706 1007 722.500 M 1046 722.500 L 1046 739 1048.468 739 C 1050.933 739, 1050.937 738.982, 1051.218 727.534 L 1051.500 716.068 1057 724.024 C 1060.025 728.401, 1062.950 731.981, 1063.500 731.981 C 1064.050 731.981, 1066.975 728.401, 1070 724.024 L 1075.500 716.068 1075.782 727.534 C 1076.063 738.982, 1076.067 739, 1078.532 739 L 1081 739 1081 722.500 L 1081 706 1078.250 706 C 1075.920 706, 1074.613 707.301, 1069.688 714.521 C 1066.492 719.208, 1063.555 722.843, 1063.161 722.600 C 1062.767 722.356, 1059.991 718.522, 1056.991 714.079 C 1052.369 707.233, 1051.114 706, 1048.768 706 L 1046 706 1046 722.500 M 1128 722.500 L 1128 739 1137.500 739 C 1146.967 739, 1147 738.991, 1147 736.500 C 1147 734.071, 1146.800 734, 1140 734 L 1133 734 1133 729 L 1133 724 1139.500 724 C 1145.767 724, 1146 723.910, 1146 721.500 C 1146 719.090, 1145.767 719, 1139.500 719 L 1133 719 1133 715 L 1133 711 1140 711 C 1146.800 711, 1147 710.929, 1147 708.500 C 1147 706.009, 1146.967 706, 1137.500 706 L 1128 706 1128 722.500 M 1166 722.500 L 1166 739 1168.468 739 C 1170.934 739, 1170.937 738.986, 1171.218 727.470 L 1171.500 715.940 1179.810 727.470 C 1186.503 736.757, 1188.594 739, 1190.560 739 L 1193 739 1193 722.500 L 1193 706 1190.532 706 C 1188.066 706, 1188.063 706.014, 1187.782 717.530 L 1187.500 729.060 1179.190 717.530 C 1172.497 708.243, 1170.406 706, 1168.440 706 L 1166 706 1166 722.500 M 1214 722.500 L 1214 739 1223.500 739 C 1232.967 739, 1233 738.991, 1233 736.500 C 1233 734.071, 1232.800 734, 1226 734 L 1219 734 1219 729 L 1219 724 1225.500 724 C 1231.767 724, 1232 723.910, 1232 721.500 C 1232 719.090, 1231.767 719, 1225.500 719 L 1219 719 1219 715 L 1219 711 1226 711 C 1232.800 711, 1233 710.929, 1233 708.500 C 1233 706.009, 1232.967 706, 1223.500 706 L 1214 706 1214 722.500 M 1252 722.500 L 1252 739 1254.500 739 C 1256.910 739, 1257 738.767, 1257 732.500 L 1257 726 1260.391 726 C 1263.553 726, 1264.009 726.439, 1267.141 732.496 C 1270.257 738.523, 1270.742 738.993, 1273.842 738.996 L 1277.184 739 1273.568 732.422 L 1269.953 725.845 1272.476 722.846 C 1274.119 720.893, 1275 718.629, 1275 716.358 C 1275 708.796, 1270.829 706, 1259.550 706 L 1252 706 1252 722.500 M 1346 722.500 L 1346 739 1348.500 739 L 1351 739 1351 722.500 L 1351 706 1348.500 706 L 1346 706 1346 722.500 M 1380.139 708.187 C 1379.666 709.459, 1376.967 716.695, 1374.140 724.267 C 1371.313 731.839, 1369 738.251, 1369 738.517 C 1369 738.783, 1370.278 739, 1371.840 739 C 1374.267 739, 1374.872 738.418, 1376 735 L 1377.320 731 1384.120 731 L 1390.920 731 1392.118 735 C 1393.151 738.447, 1393.709 739, 1396.158 739 C 1397.802 739, 1398.971 738.473, 1398.931 737.750 C 1398.894 737.063, 1396.292 729.750, 1393.150 721.500 C 1387.519 706.714, 1387.391 706.496, 1384.218 706.187 C 1381.616 705.933, 1380.834 706.317, 1380.139 708.187 M 1485 722.500 L 1485 739 1487.500 739 C 1489.910 739, 1490 738.767, 1490 732.500 L 1490 726 1493.391 726 C 1496.553 726, 1497.009 726.439, 1500.141 732.496 C 1503.257 738.523, 1503.742 738.993, 1506.842 738.996 L 1510.184 739 1506.568 732.422 L 1502.953 725.845 1505.476 722.846 C 1507.119 720.893, 1508 718.629, 1508 716.358 C 1508 708.796, 1503.829 706, 1492.550 706 L 1485 706 1485 722.500 M 1528 722.500 L 1528 739 1537.500 739 C 1546.967 739, 1547 738.991, 1547 736.500 C 1547 734.071, 1546.800 734, 1540 734 L 1533 734 1533 729 L 1533 724 1539.500 724 C 1545.767 724, 1546 723.910, 1546 721.500 C 1546 719.090, 1545.767 719, 1539.500 719 L 1533 719 1533 715 L 1533 711 1540 711 C 1546.800 711, 1547 710.929, 1547 708.500 C 1547 706.009, 1546.967 706, 1537.500 706 L 1528 706 1528 722.500 M 1567 722.500 L 1567 739 1569.468 739 C 1571.934 739, 1571.937 738.986, 1572.218 727.470 L 1572.500 715.940 1580.810 727.470 C 1587.503 736.757, 1589.594 739, 1591.560 739 L 1594 739 1594 722.500 L 1594 706 1591.532 706 C 1589.066 706, 1589.063 706.014, 1588.782 717.530 L 1588.500 729.060 1580.190 717.530 C 1573.497 708.243, 1571.406 706, 1569.440 706 L 1567 706 1567 722.500 M 1663.573 708.230 C 1663.962 709.456, 1666.648 716.768, 1669.542 724.480 L 1674.804 738.500 1678.102 738.500 L 1681.400 738.500 1687.153 723.500 C 1690.317 715.250, 1692.927 707.938, 1692.953 707.250 C 1692.980 706.541, 1691.808 706, 1690.249 706 C 1687.620 706, 1687.299 706.574, 1683.013 718.964 C 1680.546 726.094, 1678.240 731.606, 1677.890 731.214 C 1677.539 730.821, 1675.304 724.987, 1672.923 718.250 C 1668.750 706.442, 1668.491 706, 1665.730 706 C 1663.222 706, 1662.953 706.278, 1663.573 708.230 M 1717.139 708.187 C 1716.666 709.459, 1713.967 716.695, 1711.140 724.267 C 1708.313 731.839, 1706 738.251, 1706 738.517 C 1706 738.783, 1707.278 739, 1708.840 739 C 1711.267 739, 1711.872 738.418, 1713 735 L 1714.320 731 1721.120 731 L 1727.920 731 1729.118 735 C 1730.151 738.447, 1730.709 739, 1733.158 739 C 1734.796 739, 1735.975 738.470, 1735.942 737.750 C 1735.910 737.063, 1733.284 729.750, 1730.106 721.500 C 1724.449 706.812, 1724.263 706.493, 1721.164 706.187 C 1718.618 705.935, 1717.830 706.326, 1717.139 708.187 M 1749.573 708.230 C 1749.962 709.456, 1752.648 716.768, 1755.542 724.480 L 1760.804 738.500 1764.115 738.500 L 1767.425 738.500 1773.144 723.500 C 1776.289 715.250, 1778.894 707.938, 1778.931 707.250 C 1778.971 706.536, 1777.820 706, 1776.249 706 C 1773.620 706, 1773.299 706.574, 1769.013 718.964 C 1766.546 726.094, 1764.240 731.606, 1763.890 731.214 C 1763.539 730.821, 1761.304 724.987, 1758.923 718.250 C 1754.750 706.442, 1754.491 706, 1751.730 706 C 1749.222 706, 1748.953 706.278, 1749.573 708.230 M 1797 722.500 L 1797 739 1806.500 739 C 1815.967 739, 1816 738.991, 1816 736.500 C 1816 734.071, 1815.800 734, 1809 734 L 1802 734 1802 729 L 1802 724 1808.500 724 C 1814.767 724, 1815 723.910, 1815 721.500 C 1815 719.090, 1814.767 719, 1808.500 719 L 1802 719 1802 715 L 1802 711 1809 711 C 1815.800 711, 1816 710.929, 1816 708.500 C 1816 706.009, 1815.967 706, 1806.500 706 L 1797 706 1797 722.500 M 1836 722.500 L 1836 739 1838.500 739 L 1841 739 1841 722.500 L 1841 706 1838.500 706 L 1836 706 1836 722.500 M 674.106 712.564 C 668.081 717.634, 668.076 727.362, 674.096 732.427 C 681.570 738.716, 693 732.714, 693 722.500 C 693 712.294, 681.570 706.283, 674.106 712.564 M 857.106 712.564 C 851.081 717.634, 851.076 727.362, 857.096 732.427 C 864.570 738.716, 876 732.714, 876 722.500 C 876 712.294, 864.570 706.283, 857.106 712.564 M 1623.106 712.564 C 1617.081 717.634, 1617.076 727.362, 1623.096 732.427 C 1630.570 738.716, 1642 732.714, 1642 722.500 C 1642 712.294, 1630.570 706.283, 1623.106 712.564 M 1257 716 L 1257 721 1261.977 721 C 1266.182 721, 1267.208 720.612, 1268.592 718.500 C 1270.109 716.184, 1270.109 715.816, 1268.592 713.500 C 1267.208 711.388, 1266.182 711, 1261.977 711 L 1257 711 1257 716 M 1490 716 L 1490 721 1494.977 721 C 1499.182 721, 1500.208 720.612, 1501.592 718.500 C 1503.109 716.184, 1503.109 715.816, 1501.592 713.500 C 1500.208 711.388, 1499.182 711, 1494.977 711 L 1490 711 1490 716 M 1383.458 714.500 C 1383.032 715.600, 1381.861 718.638, 1380.856 721.250 L 1379.029 726 1383.961 726 L 1388.892 726 1387.099 720.750 C 1384.057 711.840, 1384.316 712.285, 1383.458 714.500 M 1720.458 714.500 C 1720.032 715.600, 1718.861 718.638, 1717.856 721.250 L 1716.029 726 1720.961 726 L 1725.892 726 1724.099 720.750 C 1721.057 711.840, 1721.316 712.285, 1720.458 714.500" stroke="none" fill="#3b83bc" fill-rule="evenodd"/></svg>