<?xml version="1.0" encoding="UTF-8"?>
<!DOCTYPE svg PUBLIC "-//W3C//DTD SVG 1.1//EN" "http://www.w3.org/Graphics/SVG/1.1/DTD/svg11.dtd">
<svg xmlns="http://www.w3.org/2000/svg" version="1.1" width="1993px" height="863px" style="shape-rendering:geometricPrecision; text-rendering:geometricPrecision; image-rendering:optimizeQuality; fill-rule:evenodd; clip-rule:evenodd" xmlns:xlink="http://www.w3.org/1999/xlink">
<g><path style="opacity:0.983" fill="#fefffe" d="M 700.5,109.5 C 702.134,110.207 703.468,111.373 704.5,113C 729.824,112.526 755.158,112.526 780.5,113C 792.569,114.154 804.569,115.488 816.5,117C 875.926,130.312 904.093,167.478 901,228.5C 895.05,277.782 867.55,305.949 818.5,313C 786.464,313.959 754.464,315.626 722.5,318C 704.821,319.679 693.987,329.179 690,346.5C 688.73,381.143 688.063,415.809 688,450.5C 687.5,451 687,451.5 686.5,452C 666.5,452.667 646.5,452.667 626.5,452C 626,451.5 625.5,451 625,450.5C 624.333,422.167 624.333,393.833 625,365.5C 625.476,344.022 628.809,323.022 635,302.5C 646.373,279.046 664.873,264.546 690.5,259C 700.76,256.615 711.093,254.615 721.5,253C 745.479,251.8 769.479,251.134 793.5,251C 818.271,252.539 832.604,241.206 836.5,217C 835.803,207.608 832.136,199.608 825.5,193C 816.769,186.864 807.102,182.864 796.5,181C 778.502,177.515 760.335,176.015 742,176.5C 724.493,176.75 706.993,177.25 689.5,178C 688.391,178.638 687.225,179.138 686,179.5C 682.707,178.894 679.373,178.561 676,178.5C 659.533,180.194 643.033,180.694 626.5,180C 626,179.5 625.5,179 625,178.5C 624.333,158.167 624.333,137.833 625,117.5C 625.5,117 626,116.5 626.5,116C 650.489,114.98 674.489,114.313 698.5,114C 700.037,112.89 700.703,111.39 700.5,109.5 Z"/></g>
<g><path style="opacity:0.968" fill="#fefffe" d="M 271.5,115.5 C 274.607,115.351 277.607,115.851 280.5,117C 283.708,121.247 286.542,125.747 289,130.5C 294.339,137.753 301.506,141.753 310.5,142.5C 322.673,139.85 334.84,139.85 347,142.5C 354.729,141.802 361.062,138.469 366,132.5C 368.958,128.084 371.792,123.584 374.5,119C 379.232,116.599 384.232,115.932 389.5,117C 408.397,122.949 426.73,130.283 444.5,139C 446,139.833 447.167,141 448,142.5C 446.958,151.438 446.625,160.438 447,169.5C 448.333,172.167 449.667,174.833 451,177.5C 458.704,184.928 466.871,191.762 475.5,198C 485.512,213.67 498.845,217.336 515.5,209C 518.964,208.183 522.298,208.517 525.5,210C 537.983,227.124 548.816,245.291 558,264.5C 559.734,268.017 560.401,271.684 560,275.5C 553.982,280.854 548.648,286.854 544,293.5C 542.267,297.326 541.101,301.326 540.5,305.5C 544.722,318.83 547.222,332.496 548,346.5C 549.583,353.501 553.083,359.334 558.5,364C 564.88,368.44 571.713,371.94 579,374.5C 578.277,397.507 574.944,420.174 569,442.5C 568.27,447.155 565.77,450.321 561.5,452C 549.031,449.934 538.531,453.434 530,462.5C 522.508,477.487 514.508,492.153 506,506.5C 505.333,509.833 505.333,513.167 506,516.5C 508.139,522.112 510.806,527.446 514,532.5C 514.738,536.261 514.405,539.928 513,543.5C 497.998,560.508 481.164,575.341 462.5,588C 459.5,590 456.5,590 453.5,588C 446.928,580.05 438.594,575.216 428.5,573.5C 424.727,573.86 421.061,574.693 417.5,576C 409.408,581.055 400.741,584.388 391.5,586C 390.333,585.5 389.5,584.667 389,583.5C 388.333,577.5 388.333,571.5 389,565.5C 389.785,563.714 390.951,562.214 392.5,561C 459.191,533.966 501.357,485.466 519,415.5C 532.62,336.694 510.454,269.861 452.5,215C 401.01,173.634 343.01,160.967 278.5,177C 226.432,191.083 187.265,221.583 161,268.5C 127.288,330.858 124.621,394.525 153,459.5C 169.703,494.539 194.536,522.372 227.5,543C 240.444,549.721 253.278,556.554 266,563.5C 270.464,570.653 270.631,577.82 266.5,585C 264.167,585.667 261.833,585.667 259.5,585C 251.483,582.492 243.816,579.159 236.5,575C 230.5,573 224.5,573 218.5,575C 211.543,578.97 204.876,583.304 198.5,588C 193.581,588.714 189.247,587.381 185.5,584C 171.383,571.851 157.55,559.351 144,546.5C 140.758,542.36 139.758,537.694 141,532.5C 143.667,527.833 146.333,523.167 149,518.5C 151.227,511.392 150.227,504.725 146,498.5C 138.041,487.583 131.374,475.917 126,463.5C 123.079,459.908 119.579,457.075 115.5,455C 108.276,453.231 100.943,452.231 93.5,452C 91,450.833 89.1667,449 88,446.5C 82.6839,427.928 78.6839,409.261 76,390.5C 75.3081,385.109 75.6415,379.775 77,374.5C 77.8333,373.667 78.6667,372.833 79.5,372C 83.123,370.895 86.7897,369.895 90.5,369C 92.5759,366.416 95.2426,364.749 98.5,364C 102.104,361.292 104.604,357.792 106,353.5C 107.805,339.334 110.472,325.334 114,311.5C 114.667,307.833 114.667,304.167 114,300.5C 112.503,296.835 110.503,293.502 108,290.5C 104.297,287.133 100.964,283.466 98,279.5C 96.9944,277.466 96.4944,275.3 96.5,273C 96.9905,267.861 98.4905,263.028 101,258.5C 109.698,240.928 119.531,224.095 130.5,208C 133.167,207.333 135.833,207.333 138.5,208C 143.363,210.066 148.363,211.732 153.5,213C 159.813,214.337 165.48,213.004 170.5,209C 180.695,197.128 192.361,187.128 205.5,179C 207.068,176.696 208.235,174.196 209,171.5C 210.091,162.768 209.258,154.268 206.5,146C 207.167,144.333 207.833,142.667 208.5,141C 228.793,130.411 249.793,121.911 271.5,115.5 Z"/></g>
<g><path style="opacity:0.984" fill="#fefffe" d="M 1015.5,115.5 C 1047.12,114.05 1069.95,127.383 1084,155.5C 1089.26,167.6 1093.92,179.933 1098,192.5C 1127.01,278.706 1155.51,365.04 1183.5,451.5C 1158.83,451.5 1134.17,451.5 1109.5,451.5C 1104.7,434.441 1099.7,417.441 1094.5,400.5C 1047.17,400.333 999.832,400.5 952.5,401C 946.385,417.512 941.385,434.345 937.5,451.5C 912.158,451.833 886.825,451.5 861.5,450.5C 892.766,353.534 924.933,256.868 958,160.5C 965.859,140.641 979.692,126.808 999.5,119C 1004.91,117.504 1010.24,116.337 1015.5,115.5 Z M 1019.5,201.5 C 1025.2,200.436 1029.37,202.436 1032,207.5C 1044.81,247.426 1057.31,287.426 1069.5,327.5C 1038.5,327.5 1007.5,327.5 976.5,327.5C 988.559,288.155 1000.73,248.821 1013,209.5C 1014.3,206.039 1016.47,203.372 1019.5,201.5 Z"/></g>
<g><path style="opacity:0.984" fill="#fefffe" d="M 1717.5,115.5 C 1745.58,113.957 1767.08,124.957 1782,148.5C 1785.61,155.379 1788.94,162.379 1792,169.5C 1823.67,263.02 1854.84,356.687 1885.5,450.5C 1860.84,451.5 1836.18,451.833 1811.5,451.5C 1806.7,434.435 1801.7,417.435 1796.5,400.5C 1749.17,400.333 1701.83,400.5 1654.5,401C 1648.38,417.512 1643.38,434.345 1639.5,451.5C 1614.16,451.833 1588.82,451.5 1563.5,450.5C 1594.77,353.534 1626.93,256.868 1660,160.5C 1670.62,134.306 1689.78,119.306 1717.5,115.5 Z M 1721.5,201.5 C 1727.2,200.436 1731.37,202.436 1734,207.5C 1746.81,247.427 1759.31,287.427 1771.5,327.5C 1740.5,327.5 1709.5,327.5 1678.5,327.5C 1690.56,288.155 1702.73,248.821 1715,209.5C 1716.3,206.039 1718.47,203.372 1721.5,201.5 Z"/></g>
<g><path style="opacity:0.982" fill="#fefffe" d="M 1207.5,123.5 C 1229.5,123.5 1251.5,123.5 1273.5,123.5C 1273.5,232.833 1273.5,342.167 1273.5,451.5C 1251.5,451.5 1229.5,451.5 1207.5,451.5C 1207.5,342.167 1207.5,232.833 1207.5,123.5 Z"/></g>
<g><path style="opacity:0.984" fill="#fefffe" d="M 1297.5,124.5 C 1323.33,123.502 1349.33,123.169 1375.5,123.5C 1376.09,128.95 1377.26,134.283 1379,139.5C 1402.85,214.547 1426.85,289.547 1451,364.5C 1454.04,370.368 1458.54,371.868 1464.5,369C 1466.04,367.421 1467.21,365.587 1468,363.5C 1493.75,283.74 1518.59,203.74 1542.5,123.5C 1568.18,123.167 1593.84,123.5 1619.5,124.5C 1588.7,219.725 1557.2,314.725 1525,409.5C 1509.59,448.121 1481.43,463.621 1440.5,456C 1419.73,449.566 1404.9,436.4 1396,416.5C 1362.23,319.365 1329.4,222.032 1297.5,124.5 Z"/></g>
<g><path style="opacity:0.955" fill="#fefffe" d="M 327.5,207.5 C 328.79,208.058 329.623,209.058 330,210.5C 336.835,232.669 341.168,255.336 343,278.5C 345.42,298.152 345.754,317.819 344,337.5C 342.922,343.557 341.589,349.557 340,355.5C 339.19,360.644 336.19,363.31 331,363.5C 327.519,362.877 324.019,362.377 320.5,362C 318.667,361.5 317.5,360.333 317,358.5C 311.804,338.488 310.137,318.154 312,297.5C 314.471,267.009 319.637,237.009 327.5,207.5 Z"/></g>
<g><path style="opacity:0.899" fill="#fefffe" d="M 326.5,375.5 C 337.968,376.464 342.135,382.464 339,393.5C 332.675,401 326.009,401.333 319,394.5C 314.938,385.511 317.438,379.178 326.5,375.5 Z"/></g>
<g><path style="opacity:0.949" fill="#fefffe" d="M 351.5,386.5 C 357.797,386.098 363.797,387.265 369.5,390C 389.592,398.207 407.925,409.207 424.5,423C 441.227,436.055 457.06,450.221 472,465.5C 472.494,467.134 472.66,468.801 472.5,470.5C 466.683,470.13 461.016,468.963 455.5,467C 432.761,458.642 410.427,449.309 388.5,439C 376.292,432.119 364.625,424.453 353.5,416C 342.279,406.851 341.612,397.018 351.5,386.5 Z"/></g>
<g><path style="opacity:0.947" fill="#fefffe" d="M 294.5,387.5 C 298.967,387.133 303.3,387.633 307.5,389C 311.736,394.667 313.236,400.834 312,407.5C 300.92,418.919 288.42,428.419 274.5,436C 247.45,449.683 219.45,461.017 190.5,470C 187.534,470.895 184.867,470.395 182.5,468.5C 186.278,463.22 190.611,458.386 195.5,454C 212.833,440 230.167,426 247.5,412C 262.095,401.703 277.761,393.537 294.5,387.5 Z"/></g>
<g><path style="opacity:0.937" fill="#fefffe" d="M 328.5,418.5 C 330.414,419.185 332.414,419.685 334.5,420C 335.126,420.75 335.626,421.584 336,422.5C 336.667,479.5 336.667,536.5 336,593.5C 334.607,596.366 332.274,597.699 329,597.5C 325.196,597.6 322.529,595.934 321,592.5C 320.333,535.833 320.333,479.167 321,422.5C 321.308,421.692 321.808,421.025 322.5,420.5C 324.657,419.95 326.657,419.283 328.5,418.5 Z"/></g>
<g><path style="opacity:0.964" fill="#fefffe" d="M 1450.5,507.5 C 1471.85,505.53 1491.18,510.697 1508.5,523C 1512.88,527.045 1516.88,531.378 1520.5,536C 1520.24,537.261 1519.57,538.261 1518.5,539C 1509.03,544.97 1499.7,551.137 1490.5,557.5C 1475.16,541.851 1457.83,539.351 1438.5,550C 1421.89,565.197 1417.73,583.364 1426,604.5C 1437.2,624.127 1453.7,630.627 1475.5,624C 1485.51,619.826 1492.18,612.659 1495.5,602.5C 1483.83,602.5 1472.17,602.5 1460.5,602.5C 1460.5,592.5 1460.5,582.5 1460.5,572.5C 1484.17,572.5 1507.83,572.5 1531.5,572.5C 1531.5,601.5 1531.5,630.5 1531.5,659.5C 1525.17,659.5 1518.83,659.5 1512.5,659.5C 1511.16,653.809 1509.66,648.142 1508,642.5C 1492.27,658.745 1473.1,665.245 1450.5,662C 1412.45,655.28 1390.61,632.78 1385,594.5C 1381.69,562.732 1392.85,537.566 1418.5,519C 1428.58,513.253 1439.25,509.42 1450.5,507.5 Z"/></g>
<g><path style="opacity:0.985" fill="#fefffe" d="M 620.5,510.5 C 651.167,510.5 681.833,510.5 712.5,510.5C 712.5,522.167 712.5,533.833 712.5,545.5C 694.167,545.5 675.833,545.5 657.5,545.5C 657.5,552.833 657.5,560.167 657.5,567.5C 673.5,567.5 689.5,567.5 705.5,567.5C 705.5,578.5 705.5,589.5 705.5,600.5C 689.5,600.5 673.5,600.5 657.5,600.5C 657.5,608.5 657.5,616.5 657.5,624.5C 676.5,624.5 695.5,624.5 714.5,624.5C 714.5,636.167 714.5,647.833 714.5,659.5C 683.167,659.5 651.833,659.5 620.5,659.5C 620.5,609.833 620.5,560.167 620.5,510.5 Z"/></g>
<g><path style="opacity:0.982" fill="#fefffe" d="M 798.5,510.5 C 809.505,510.333 820.505,510.5 831.5,511C 850.705,538.574 869.538,566.407 888,594.5C 888.5,566.502 888.667,538.502 888.5,510.5C 900.833,510.5 913.167,510.5 925.5,510.5C 925.5,560.167 925.5,609.833 925.5,659.5C 914.495,659.667 903.495,659.5 892.5,659C 873.667,630.833 854.833,602.667 836,574.5C 835.5,602.831 835.333,631.165 835.5,659.5C 823.167,659.5 810.833,659.5 798.5,659.5C 798.5,609.833 798.5,560.167 798.5,510.5 Z"/></g>
<g><path style="opacity:0.985" fill="#fefffe" d="M 1014.5,510.5 C 1045.17,510.5 1075.83,510.5 1106.5,510.5C 1106.5,522.167 1106.5,533.833 1106.5,545.5C 1088.17,545.5 1069.83,545.5 1051.5,545.5C 1051.5,552.833 1051.5,560.167 1051.5,567.5C 1067.5,567.5 1083.5,567.5 1099.5,567.5C 1099.5,578.5 1099.5,589.5 1099.5,600.5C 1083.5,600.5 1067.5,600.5 1051.5,600.5C 1051.5,608.5 1051.5,616.5 1051.5,624.5C 1070.5,624.5 1089.5,624.5 1108.5,624.5C 1108.5,636.167 1108.5,647.833 1108.5,659.5C 1077.17,659.5 1045.83,659.5 1014.5,659.5C 1014.5,609.833 1014.5,560.167 1014.5,510.5 Z"/></g>
<g><path style="opacity:0.975" fill="#fefffe" d="M 1192.5,510.5 C 1216.17,510.333 1239.84,510.5 1263.5,511C 1298.28,518.685 1312.44,540.185 1306,575.5C 1302.16,586.671 1295.33,595.505 1285.5,602C 1295.71,620.914 1306.04,639.747 1316.5,658.5C 1303.18,659.666 1289.85,659.833 1276.5,659C 1268.37,643.244 1260.37,627.411 1252.5,611.5C 1244.86,610.503 1237.2,610.169 1229.5,610.5C 1229.5,626.833 1229.5,643.167 1229.5,659.5C 1217.17,659.5 1204.83,659.5 1192.5,659.5C 1192.5,609.833 1192.5,560.167 1192.5,510.5 Z M 1229.5,545.5 C 1239.57,545.105 1249.57,545.605 1259.5,547C 1269.79,552.657 1272.29,560.823 1267,571.5C 1265.06,574.106 1262.56,575.939 1259.5,577C 1249.57,578.395 1239.57,578.895 1229.5,578.5C 1229.5,567.5 1229.5,556.5 1229.5,545.5 Z"/></g>
<g><path style="opacity:0.982" fill="#fefffe" d="M 1617.5,510.5 C 1629.83,510.5 1642.17,510.5 1654.5,510.5C 1654.5,560.167 1654.5,609.833 1654.5,659.5C 1642.17,659.5 1629.83,659.5 1617.5,659.5C 1617.5,609.833 1617.5,560.167 1617.5,510.5 Z"/></g>
<g><path style="opacity:0.967" fill="#fefffe" d="M 1785.5,510.5 C 1800.17,510.333 1814.84,510.5 1829.5,511C 1847.5,560.333 1865.5,609.667 1883.5,659C 1870.17,659.5 1856.84,659.667 1843.5,659.5C 1841.44,650.665 1838.78,641.998 1835.5,633.5C 1816.85,632.5 1798.18,632.167 1779.5,632.5C 1777.44,641.335 1774.78,650.002 1771.5,658.5C 1758.52,659.499 1745.52,659.832 1732.5,659.5C 1749.88,609.732 1767.55,560.066 1785.5,510.5 Z M 1807.5,545.5 C 1814.05,564.504 1820.38,583.671 1826.5,603C 1814.17,603.5 1801.84,603.667 1789.5,603.5C 1794.9,583.969 1800.9,564.636 1807.5,545.5 Z"/></g>
<g><path style="opacity:0.967" fill="#fefffe" d="M 244.5,613.5 C 300.501,613.333 356.501,613.5 412.5,614C 418.001,614.709 423.335,616.042 428.5,618C 437.046,624.623 437.713,632.123 430.5,640.5C 425.438,642.932 420.105,644.432 414.5,645C 356.488,645.182 298.488,645.682 240.5,646.5C 230.229,645.704 223.229,640.537 219.5,631C 220.592,623.128 224.925,618.128 232.5,616C 236.665,615.295 240.665,614.461 244.5,613.5 Z"/></g>
<g><path style="opacity:0.97" fill="#fefffe" d="M 258.5,656.5 C 308.85,656.074 359.183,656.574 409.5,658C 424.675,664.036 426.342,672.703 414.5,684C 409.875,686.704 404.875,688.038 399.5,688C 349.182,687.719 298.848,687.386 248.5,687C 240.114,684.93 235.114,679.596 233.5,671C 234.658,665.841 237.658,662.174 242.5,660C 248.038,659.161 253.372,657.995 258.5,656.5 Z"/></g>
<g><path style="opacity:0.758" fill="#fefffe" d="M 1721.5,694.5 C 1723.6,694.201 1725.6,694.534 1727.5,695.5C 1725.92,698.062 1723.92,700.062 1721.5,701.5C 1720.83,701.167 1720.17,700.833 1719.5,700.5C 1720.75,698.677 1721.41,696.677 1721.5,694.5 Z"/></g>
<g><path style="opacity:0.696" fill="#fefffe" d="M 857.5,696.5 C 860.545,696.342 863.379,697.009 866,698.5C 867.555,696.485 869.389,696.152 871.5,697.5C 868.993,702.168 865.493,702.835 861,699.5C 855.627,702.724 854.46,701.724 857.5,696.5 Z"/></g>
<g><path style="opacity:0.942" fill="#fefffe" d="M 266.5,702.5 C 308.835,702.333 351.168,702.5 393.5,703C 394.661,705.721 393.994,708.054 391.5,710C 367.039,735.15 337.705,743.483 303.5,735C 287.316,730.663 273.816,722.163 263,709.5C 261.689,705.738 262.856,703.405 266.5,702.5 Z"/></g>
<g><path style="opacity:0.831" fill="#fefffe" d="M 629.5,704.5 C 635.52,703.22 640.353,704.887 644,709.5C 644.483,710.448 644.649,711.448 644.5,712.5C 643.07,712.421 641.736,712.754 640.5,713.5C 638.691,711.512 636.524,710.178 634,709.5C 628.673,710.48 627.506,713.147 630.5,717.5C 633.717,718.972 637.051,720.138 640.5,721C 642.286,721.785 643.786,722.951 645,724.5C 646.544,736.945 641.044,741.778 628.5,739C 624.833,738 622.5,735.667 621.5,732C 625.145,729.661 628.145,730.328 630.5,734C 635.125,735.552 638.458,734.219 640.5,730C 640.22,728.605 639.553,727.438 638.5,726.5C 634.886,725.18 631.22,724.013 627.5,723C 623.633,719.34 622.466,714.84 624,709.5C 625.73,707.598 627.563,705.931 629.5,704.5 Z"/></g>
<g><path style="opacity:0.839" fill="#fefffe" d="M 674.5,704.5 C 694.594,704.097 701.428,713.43 695,732.5C 688.006,739.991 679.84,741.491 670.5,737C 663.502,730.47 661.668,722.636 665,713.5C 667.406,709.592 670.572,706.592 674.5,704.5 Z M 676.5,709.5 C 690.21,709.916 694.71,716.583 690,729.5C 686.562,734.081 682.062,735.581 676.5,734C 665.939,725.844 665.939,717.678 676.5,709.5 Z"/></g>
<g><path style="opacity:0.81" fill="#fefffe" d="M 810.5,704.5 C 814.514,704.334 818.514,704.501 822.5,705C 825.692,706.094 828.358,707.927 830.5,710.5C 829.564,711.974 828.23,712.974 826.5,713.5C 815.275,706.407 807.942,709.24 804.5,722C 807.887,735.167 815.22,738 826.5,730.5C 831.301,732.101 831.634,734.268 827.5,737C 824.431,738.846 821.098,739.846 817.5,740C 818.766,740.309 819.933,740.809 821,741.5C 822.658,749.34 819.491,752.34 811.5,750.5C 811.238,747.079 812.572,746.079 815.5,747.5C 819.136,746.064 819.303,744.397 816,742.5C 813.167,743.667 812.333,742.833 813.5,740C 799.917,734.605 796.084,725.105 802,711.5C 804.441,708.546 807.275,706.213 810.5,704.5 Z"/></g>
<g><path style="opacity:0.839" fill="#fefffe" d="M 857.5,704.5 C 877.594,704.097 884.428,713.43 878,732.5C 871.006,739.991 862.84,741.491 853.5,737C 846.502,730.47 844.668,722.636 848,713.5C 850.406,709.592 853.572,706.592 857.5,704.5 Z M 859.5,709.5 C 873.21,709.916 877.71,716.583 873,729.5C 869.562,734.081 865.062,735.581 859.5,734C 848.939,725.844 848.939,717.678 859.5,709.5 Z"/></g>
<g><path style="opacity:0.831" fill="#fefffe" d="M 944.5,704.5 C 950.52,703.22 955.353,704.887 959,709.5C 959.483,710.448 959.649,711.448 959.5,712.5C 958.07,712.421 956.736,712.754 955.5,713.5C 953.691,711.512 951.524,710.178 949,709.5C 943.673,710.48 942.506,713.147 945.5,717.5C 948.717,718.972 952.051,720.138 955.5,721C 957.286,721.785 958.786,722.951 960,724.5C 961.544,736.945 956.044,741.778 943.5,739C 939.833,738 937.5,735.667 936.5,732C 940.145,729.661 943.145,730.328 945.5,734C 950.125,735.552 953.458,734.219 955.5,730C 955.22,728.605 954.553,727.438 953.5,726.5C 949.886,725.18 946.22,724.013 942.5,723C 938.633,719.34 937.466,714.84 939,709.5C 940.73,707.598 942.563,705.931 944.5,704.5 Z"/></g>
<g><path style="opacity:0.828" fill="#fefffe" d="M 1303.5,704.5 C 1311.5,702.87 1318.17,705.037 1323.5,711C 1321.99,711.85 1320.49,712.683 1319,713.5C 1307.88,706.138 1300.72,708.972 1297.5,722C 1298.89,731.408 1304.23,735.408 1313.5,734C 1323.77,726.677 1322.43,723.844 1309.5,725.5C 1309.5,723.833 1309.5,722.167 1309.5,720.5C 1314.83,720.5 1320.17,720.5 1325.5,720.5C 1325.5,726.5 1325.5,732.5 1325.5,738.5C 1324.17,738.5 1322.83,738.5 1321.5,738.5C 1321.66,737.127 1321.49,735.793 1321,734.5C 1319.46,736.378 1317.62,737.878 1315.5,739C 1295.44,739.919 1288.6,730.752 1295,711.5C 1297.44,708.546 1300.27,706.213 1303.5,704.5 Z"/></g>
<g><path style="opacity:0.831" fill="#fefffe" d="M 1423.5,704.5 C 1429.52,703.22 1434.35,704.887 1438,709.5C 1438.48,710.448 1438.65,711.448 1438.5,712.5C 1437.07,712.421 1435.74,712.754 1434.5,713.5C 1432.69,711.512 1430.52,710.178 1428,709.5C 1422.67,710.48 1421.51,713.147 1424.5,717.5C 1427.72,718.972 1431.05,720.138 1434.5,721C 1436.29,721.785 1437.79,722.951 1439,724.5C 1440.54,736.945 1435.04,741.778 1422.5,739C 1418.83,738 1416.5,735.667 1415.5,732C 1419.15,729.661 1422.15,730.328 1424.5,734C 1429.12,735.552 1432.46,734.219 1434.5,730C 1434.22,728.605 1433.55,727.438 1432.5,726.5C 1428.89,725.18 1425.22,724.013 1421.5,723C 1417.63,719.34 1416.47,714.84 1418,709.5C 1419.73,707.598 1421.56,705.931 1423.5,704.5 Z"/></g>
<g><path style="opacity:0.839" fill="#fefffe" d="M 1623.5,704.5 C 1643.59,704.097 1650.43,713.43 1644,732.5C 1637.01,739.991 1628.84,741.491 1619.5,737C 1612.5,730.47 1610.67,722.636 1614,713.5C 1616.41,709.592 1619.57,706.592 1623.5,704.5 Z M 1625.5,709.5 C 1639.21,709.916 1643.71,716.583 1639,729.5C 1635.56,734.081 1631.06,735.581 1625.5,734C 1614.94,725.844 1614.94,717.678 1625.5,709.5 Z"/></g>
<g><path style="opacity:0.831" fill="#fefffe" d="M 1866.5,704.5 C 1872.52,703.22 1877.35,704.887 1881,709.5C 1881.48,710.448 1881.65,711.448 1881.5,712.5C 1880.07,712.421 1878.74,712.754 1877.5,713.5C 1875.69,711.512 1873.52,710.178 1871,709.5C 1865.67,710.48 1864.51,713.147 1867.5,717.5C 1870.72,718.972 1874.05,720.138 1877.5,721C 1879.29,721.785 1880.79,722.951 1882,724.5C 1883.54,736.945 1878.04,741.778 1865.5,739C 1861.83,738 1859.5,735.667 1858.5,732C 1862.15,729.661 1865.15,730.328 1867.5,734C 1872.12,735.552 1875.46,734.219 1877.5,730C 1877.22,728.605 1876.55,727.438 1875.5,726.5C 1871.89,725.18 1868.22,724.013 1864.5,723C 1860.63,719.34 1859.47,714.84 1861,709.5C 1862.73,707.598 1864.56,705.931 1866.5,704.5 Z"/></g>
<g><path style="opacity:0.914" fill="#fefffe" d="M 716.5,705.5 C 718.167,705.5 719.833,705.5 721.5,705.5C 721.5,714.833 721.5,724.167 721.5,733.5C 726.167,733.5 730.833,733.5 735.5,733.5C 735.5,735.167 735.5,736.833 735.5,738.5C 729.167,738.5 722.833,738.5 716.5,738.5C 716.5,727.5 716.5,716.5 716.5,705.5 Z"/></g>
<g><path style="opacity:0.894" fill="#fefffe" d="M 754.5,705.5 C 756.167,705.5 757.833,705.5 759.5,705.5C 759.334,712.841 759.5,720.174 760,727.5C 761.866,734.347 766.032,736.18 772.5,733C 773.717,731.352 774.55,729.519 775,727.5C 775.5,720.174 775.666,712.841 775.5,705.5C 777.167,705.5 778.833,705.5 780.5,705.5C 780.92,715.247 780.42,724.914 779,734.5C 776.187,738.489 772.354,740.156 767.5,739.5C 762.646,740.156 758.813,738.489 756,734.5C 754.58,724.914 754.08,715.247 754.5,705.5 Z"/></g>
<g><path style="opacity:0.883" fill="#fefffe" d="M 899.5,705.5 C 905.833,705.5 912.167,705.5 918.5,705.5C 918.5,707.167 918.5,708.833 918.5,710.5C 913.833,710.5 909.167,710.5 904.5,710.5C 904.5,713.167 904.5,715.833 904.5,718.5C 908.833,718.5 913.167,718.5 917.5,718.5C 917.5,720.167 917.5,721.833 917.5,723.5C 913.167,723.5 908.833,723.5 904.5,723.5C 904.5,726.833 904.5,730.167 904.5,733.5C 909.167,733.5 913.833,733.5 918.5,733.5C 918.5,735.167 918.5,736.833 918.5,738.5C 912.167,738.5 905.833,738.5 899.5,738.5C 899.5,727.5 899.5,716.5 899.5,705.5 Z"/></g>
<g><path style="opacity:0.883" fill="#fefffe" d="M 1006.5,705.5 C 1012.83,705.5 1019.17,705.5 1025.5,705.5C 1025.5,707.167 1025.5,708.833 1025.5,710.5C 1020.83,710.5 1016.17,710.5 1011.5,710.5C 1011.5,713.167 1011.5,715.833 1011.5,718.5C 1015.83,718.5 1020.17,718.5 1024.5,718.5C 1024.5,720.167 1024.5,721.833 1024.5,723.5C 1020.17,723.5 1015.83,723.5 1011.5,723.5C 1011.5,726.833 1011.5,730.167 1011.5,733.5C 1016.17,733.5 1020.83,733.5 1025.5,733.5C 1025.5,735.167 1025.5,736.833 1025.5,738.5C 1019.17,738.5 1012.83,738.5 1006.5,738.5C 1006.5,727.5 1006.5,716.5 1006.5,705.5 Z"/></g>
<g><path style="opacity:0.895" fill="#fefffe" d="M 1045.5,705.5 C 1047.53,705.338 1049.53,705.505 1051.5,706C 1054.96,711.762 1058.8,717.262 1063,722.5C 1067.2,717.262 1071.04,711.762 1074.5,706C 1076.47,705.505 1078.47,705.338 1080.5,705.5C 1080.5,716.5 1080.5,727.5 1080.5,738.5C 1078.83,738.5 1077.17,738.5 1075.5,738.5C 1075.67,730.826 1075.5,723.159 1075,715.5C 1071.69,721.458 1067.69,726.791 1063,731.5C 1058.31,726.791 1054.31,721.458 1051,715.5C 1050.5,723.159 1050.33,730.826 1050.5,738.5C 1048.83,738.5 1047.17,738.5 1045.5,738.5C 1045.5,727.5 1045.5,716.5 1045.5,705.5 Z"/></g>
<g><path style="opacity:0.883" fill="#fefffe" d="M 1127.5,705.5 C 1133.83,705.5 1140.17,705.5 1146.5,705.5C 1146.5,707.167 1146.5,708.833 1146.5,710.5C 1141.83,710.5 1137.17,710.5 1132.5,710.5C 1132.5,713.167 1132.5,715.833 1132.5,718.5C 1136.83,718.5 1141.17,718.5 1145.5,718.5C 1145.5,720.167 1145.5,721.833 1145.5,723.5C 1141.17,723.5 1136.83,723.5 1132.5,723.5C 1132.5,726.833 1132.5,730.167 1132.5,733.5C 1137.17,733.5 1141.83,733.5 1146.5,733.5C 1146.5,735.167 1146.5,736.833 1146.5,738.5C 1140.17,738.5 1133.83,738.5 1127.5,738.5C 1127.5,727.5 1127.5,716.5 1127.5,705.5 Z"/></g>
<g><path style="opacity:0.902" fill="#fefffe" d="M 1165.5,705.5 C 1168.65,704.959 1171.15,705.959 1173,708.5C 1177.67,715.167 1182.33,721.833 1187,728.5C 1187.5,720.841 1187.67,713.174 1187.5,705.5C 1189.17,705.5 1190.83,705.5 1192.5,705.5C 1192.5,716.5 1192.5,727.5 1192.5,738.5C 1189.35,739.041 1186.85,738.041 1185,735.5C 1180.33,728.833 1175.67,722.167 1171,715.5C 1170.5,723.159 1170.33,730.826 1170.5,738.5C 1168.83,738.5 1167.17,738.5 1165.5,738.5C 1165.5,727.5 1165.5,716.5 1165.5,705.5 Z"/></g>
<g><path style="opacity:0.883" fill="#fefffe" d="M 1213.5,705.5 C 1219.83,705.5 1226.17,705.5 1232.5,705.5C 1232.5,707.167 1232.5,708.833 1232.5,710.5C 1227.83,710.5 1223.17,710.5 1218.5,710.5C 1218.5,713.167 1218.5,715.833 1218.5,718.5C 1222.83,718.5 1227.17,718.5 1231.5,718.5C 1231.5,720.167 1231.5,721.833 1231.5,723.5C 1227.17,723.5 1222.83,723.5 1218.5,723.5C 1218.5,726.833 1218.5,730.167 1218.5,733.5C 1223.17,733.5 1227.83,733.5 1232.5,733.5C 1232.5,735.167 1232.5,736.833 1232.5,738.5C 1226.17,738.5 1219.83,738.5 1213.5,738.5C 1213.5,727.5 1213.5,716.5 1213.5,705.5 Z"/></g>
<g><path style="opacity:0.883" fill="#fefffe" d="M 1251.5,705.5 C 1257.93,705.13 1264.26,705.63 1270.5,707C 1276.01,713.418 1275.68,719.585 1269.5,725.5C 1271.83,729.5 1274.17,733.5 1276.5,737.5C 1274.17,738.833 1271.83,738.833 1269.5,737.5C 1267.5,733.833 1265.5,730.167 1263.5,726.5C 1261.26,725.526 1258.92,725.192 1256.5,725.5C 1256.5,729.833 1256.5,734.167 1256.5,738.5C 1254.83,738.5 1253.17,738.5 1251.5,738.5C 1251.5,727.5 1251.5,716.5 1251.5,705.5 Z M 1256.5,710.5 C 1259.85,710.335 1263.18,710.502 1266.5,711C 1270.5,714 1270.5,717 1266.5,720C 1263.18,720.498 1259.85,720.665 1256.5,720.5C 1256.5,717.167 1256.5,713.833 1256.5,710.5 Z"/></g>
<g><path style="opacity:0.947" fill="#fefffe" d="M 1345.5,705.5 C 1347.17,705.5 1348.83,705.5 1350.5,705.5C 1350.5,716.5 1350.5,727.5 1350.5,738.5C 1348.83,738.5 1347.17,738.5 1345.5,738.5C 1345.5,727.5 1345.5,716.5 1345.5,705.5 Z"/></g>
<g><path style="opacity:0.845" fill="#fefffe" d="M 1380.5,705.5 C 1382.83,705.5 1385.17,705.5 1387.5,705.5C 1391,716.507 1395,727.34 1399.5,738C 1397.19,738.497 1394.86,738.663 1392.5,738.5C 1392.24,736.063 1391.58,733.729 1390.5,731.5C 1385.88,730.507 1381.21,730.173 1376.5,730.5C 1376.91,736.404 1374.24,739.07 1368.5,738.5C 1372.1,727.354 1376.1,716.354 1380.5,705.5 Z M 1382.5,713.5 C 1383.38,713.369 1384.04,713.702 1384.5,714.5C 1385.74,718.056 1387.07,721.556 1388.5,725C 1385.17,725.667 1381.83,725.667 1378.5,725C 1380.53,721.411 1381.86,717.578 1382.5,713.5 Z"/></g>
<g><path style="opacity:0.883" fill="#fefffe" d="M 1484.5,705.5 C 1490.93,705.13 1497.26,705.63 1503.5,707C 1509.01,713.418 1508.68,719.585 1502.5,725.5C 1504.83,729.5 1507.17,733.5 1509.5,737.5C 1507.17,738.833 1504.83,738.833 1502.5,737.5C 1500.5,733.833 1498.5,730.167 1496.5,726.5C 1494.26,725.526 1491.92,725.192 1489.5,725.5C 1489.5,729.833 1489.5,734.167 1489.5,738.5C 1487.83,738.5 1486.17,738.5 1484.5,738.5C 1484.5,727.5 1484.5,716.5 1484.5,705.5 Z M 1489.5,710.5 C 1492.85,710.335 1496.18,710.502 1499.5,711C 1503.5,714 1503.5,717 1499.5,720C 1496.18,720.498 1492.85,720.665 1489.5,720.5C 1489.5,717.167 1489.5,713.833 1489.5,710.5 Z"/></g>
<g><path style="opacity:0.883" fill="#fefffe" d="M 1527.5,705.5 C 1533.83,705.5 1540.17,705.5 1546.5,705.5C 1546.5,707.167 1546.5,708.833 1546.5,710.5C 1541.83,710.5 1537.17,710.5 1532.5,710.5C 1532.5,713.167 1532.5,715.833 1532.5,718.5C 1536.83,718.5 1541.17,718.5 1545.5,718.5C 1545.5,720.167 1545.5,721.833 1545.5,723.5C 1541.17,723.5 1536.83,723.5 1532.5,723.5C 1532.5,726.833 1532.5,730.167 1532.5,733.5C 1537.17,733.5 1541.83,733.5 1546.5,733.5C 1546.5,735.167 1546.5,736.833 1546.5,738.5C 1540.17,738.5 1533.83,738.5 1527.5,738.5C 1527.5,727.5 1527.5,716.5 1527.5,705.5 Z"/></g>
<g><path style="opacity:0.902" fill="#fefffe" d="M 1566.5,705.5 C 1569.65,704.959 1572.15,705.959 1574,708.5C 1578.67,715.167 1583.33,721.833 1588,728.5C 1588.5,720.841 1588.67,713.174 1588.5,705.5C 1590.17,705.5 1591.83,705.5 1593.5,705.5C 1593.5,716.5 1593.5,727.5 1593.5,738.5C 1590.35,739.041 1587.85,738.041 1586,735.5C 1581.33,728.833 1576.67,722.167 1572,715.5C 1571.5,723.159 1571.33,730.826 1571.5,738.5C 1569.83,738.5 1568.17,738.5 1566.5,738.5C 1566.5,727.5 1566.5,716.5 1566.5,705.5 Z"/></g>
<g><path style="opacity:0.826" fill="#fefffe" d="M 1662.5,705.5 C 1664.6,705.201 1666.6,705.534 1668.5,706.5C 1671.11,714.665 1674.11,722.665 1677.5,730.5C 1681.09,722.393 1684.09,714.06 1686.5,705.5C 1688.86,705.337 1691.19,705.503 1693.5,706C 1689.36,716.747 1685.03,727.414 1680.5,738C 1678.23,738.758 1676.06,738.591 1674,737.5C 1669.86,726.912 1666.03,716.246 1662.5,705.5 Z"/></g>
<g><path style="opacity:0.845" fill="#fefffe" d="M 1717.5,705.5 C 1719.83,705.5 1722.17,705.5 1724.5,705.5C 1728,716.507 1732,727.34 1736.5,738C 1734.19,738.497 1731.86,738.663 1729.5,738.5C 1729.24,736.063 1728.58,733.729 1727.5,731.5C 1722.88,730.507 1718.21,730.173 1713.5,730.5C 1713.91,736.404 1711.24,739.07 1705.5,738.5C 1709.1,727.354 1713.1,716.354 1717.5,705.5 Z M 1719.5,713.5 C 1720.38,713.369 1721.04,713.702 1721.5,714.5C 1722.74,718.056 1724.07,721.556 1725.5,725C 1722.17,725.667 1718.83,725.667 1715.5,725C 1717.53,721.411 1718.86,717.578 1719.5,713.5 Z"/></g>
<g><path style="opacity:0.826" fill="#fefffe" d="M 1748.5,705.5 C 1750.6,705.201 1752.6,705.534 1754.5,706.5C 1757.11,714.665 1760.11,722.665 1763.5,730.5C 1767.09,722.393 1770.09,714.06 1772.5,705.5C 1774.86,705.337 1777.19,705.503 1779.5,706C 1775.36,716.747 1771.03,727.414 1766.5,738C 1764.23,738.758 1762.06,738.591 1760,737.5C 1755.86,726.912 1752.03,716.246 1748.5,705.5 Z"/></g>
<g><path style="opacity:0.883" fill="#fefffe" d="M 1796.5,705.5 C 1802.83,705.5 1809.17,705.5 1815.5,705.5C 1815.5,707.167 1815.5,708.833 1815.5,710.5C 1810.83,710.5 1806.17,710.5 1801.5,710.5C 1801.5,713.167 1801.5,715.833 1801.5,718.5C 1805.83,718.5 1810.17,718.5 1814.5,718.5C 1814.5,720.167 1814.5,721.833 1814.5,723.5C 1810.17,723.5 1805.83,723.5 1801.5,723.5C 1801.5,726.833 1801.5,730.167 1801.5,733.5C 1806.17,733.5 1810.83,733.5 1815.5,733.5C 1815.5,735.167 1815.5,736.833 1815.5,738.5C 1809.17,738.5 1802.83,738.5 1796.5,738.5C 1796.5,727.5 1796.5,716.5 1796.5,705.5 Z"/></g>
<g><path style="opacity:0.947" fill="#fefffe" d="M 1835.5,705.5 C 1837.17,705.5 1838.83,705.5 1840.5,705.5C 1840.5,716.5 1840.5,727.5 1840.5,738.5C 1838.83,738.5 1837.17,738.5 1835.5,738.5C 1835.5,727.5 1835.5,716.5 1835.5,705.5 Z"/></g>
</svg>
