<svg xmlns="http://www.w3.org/2000/svg" width="577" height="733" viewBox="0 0 577 733" version="1.1"><path d="M 299.174 153.264 C 293.027 169.695, 285.194 219.320, 283.431 253 C 282.392 272.864, 286.447 297.281, 291.316 300.471 C 292.563 301.289, 296.512 302.061, 300.248 302.218 C 305.882 302.455, 307.267 302.177, 308.982 300.462 C 311.609 297.836, 314.577 287.376, 316.633 273.500 C 318.285 262.349, 318.172 256.889, 315.396 213.500 C 314.879 205.418, 310.969 178.415, 309.010 169.393 C 307.307 161.551, 302.838 148, 301.954 148 C 301.508 148, 300.257 150.369, 299.174 153.264 M 296.313 316.082 C 291.593 317.478, 289 321.349, 289 327 C 289 332.871, 291.600 336.500, 296.956 338.105 C 302.282 339.701, 307.741 337.055, 310.412 331.584 C 312.147 328.030, 312.193 327.298, 310.912 323.674 C 308.633 317.229, 302.762 314.176, 296.313 316.082 M 262.500 328.081 C 252.587 331.409, 233.176 341.361, 221.908 348.893 C 208.383 357.933, 171.851 387.148, 161.750 397.001 C 148.684 409.747, 151.399 411.321, 173.762 403.967 C 212.201 391.327, 249.370 374.482, 265 362.618 C 277.440 353.176, 284.328 345.845, 284.224 342.160 C 284.107 338.051, 280.149 329.218, 277.636 327.458 C 274.795 325.468, 269.654 325.680, 262.500 328.081 M 321.817 328.750 C 315.935 335.074, 314.033 341.276, 316.526 345.998 C 318.540 349.810, 328.586 359.171, 337.375 365.425 C 354.057 377.295, 370.675 385.504, 410 401.297 C 438.843 412.880, 445.566 414.222, 443.151 407.913 C 440.562 401.150, 392.849 359.981, 369.123 344.038 C 357.673 336.344, 333.524 326, 327.012 326 C 325.421 326, 323.359 327.091, 321.817 328.750 M 292.604 361.250 C 291.392 363.141, 291.049 376.979, 290.454 448 C 289.767 529.895, 289.803 532.550, 291.623 534.116 C 295.633 537.567, 304.007 537.031, 305.466 533.229 C 305.810 532.332, 306.508 493.789, 307.016 447.579 C 308.073 351.567, 308.704 359, 299.500 359 C 294.938 359, 293.810 359.368, 292.604 361.250" stroke="none" fill="#db5304" fill-rule="evenodd"/><path d="M 244.358 55.064 C 233.756 57.099, 185.989 76.154, 182.337 79.806 C 181.248 80.895, 180.985 82.475, 181.404 85.411 C 182.871 95.694, 183.083 110.534, 181.798 112.946 C 181.082 114.291, 176.446 118.445, 171.498 122.176 C 166.549 125.908, 158.109 133.133, 152.742 138.231 C 147.375 143.329, 141.300 148.276, 139.242 149.224 C 133.674 151.789, 127.205 151.419, 117.837 148 C 108.002 144.410, 105.032 144.268, 102.249 147.250 C 95.246 154.753, 69 203.533, 69 209.046 C 69 213.777, 70.770 216.965, 78.030 225.312 C 87.424 236.112, 88.579 240.494, 85.105 252.145 C 82.510 260.848, 82.277 261.998, 80.105 276.791 C 79.056 283.936, 77.414 291.432, 76.458 293.448 C 74.642 297.274, 70.097 301.283, 66.250 302.451 C 65.013 302.827, 64 303.500, 64 303.946 C 64 304.984, 59.568 306.672, 54.742 307.471 C 50.540 308.167, 48.552 310.552, 47.635 316 C 46.476 322.888, 49.706 346.961, 54.342 365.987 C 59.973 389.098, 60.209 389.394, 73.691 390.267 C 84.040 390.937, 90.503 393.434, 94.654 398.363 C 96.107 400.088, 99.185 405.571, 101.495 410.546 C 103.805 415.521, 108.390 423.846, 111.684 429.046 C 114.978 434.246, 118.197 440.030, 118.837 441.899 C 121.405 449.405, 119.920 455.814, 113.150 466.446 C 106.064 477.573, 107.651 479.847, 146.328 514 C 157.658 524.005, 162.097 527, 165.595 527 C 167.880 527, 173.391 523.586, 178.949 518.727 C 184.227 514.113, 190.283 511.835, 197.185 511.868 C 202.355 511.893, 204.504 512.555, 212.215 516.502 C 223.490 522.273, 231.331 525.234, 234.245 524.820 C 236.026 524.567, 236.769 523.449, 237.781 519.500 C 240.681 508.179, 236.501 500.743, 224.349 495.604 C 201.808 486.071, 177.455 468.893, 159.651 449.967 C 139.153 428.177, 125.534 404.955, 115.527 374.727 C 107.343 350.007, 104.451 330.452, 105.365 306 C 106.660 271.314, 113.195 245.806, 128.139 217.096 C 159.795 156.278, 205.921 122.726, 272.193 112.308 C 289.125 109.647, 317.428 109.918, 334.441 112.904 C 374.051 119.857, 404.706 135.377, 431.860 162.227 C 450.025 180.188, 462.066 197.020, 473.550 220.500 C 485.257 244.438, 492.790 272.338, 495.015 300 C 496.332 316.374, 495.679 327.226, 492.306 345 C 481.809 400.313, 451.153 448.348, 407.500 477.883 C 394.936 486.383, 387.440 490.456, 373.304 496.465 C 367.146 499.082, 361.296 502.120, 360.304 503.215 C 358.924 504.739, 358.419 507.274, 358.154 514.008 C 357.848 521.791, 358.043 523.043, 359.841 524.841 C 362.461 527.461, 365.649 526.670, 380 519.838 C 393.500 513.412, 398.582 512.746, 406.493 516.368 C 409.645 517.811, 414.899 521.469, 418.169 524.496 C 426.616 532.317, 427.729 532.170, 442.049 521.343 C 467.308 502.246, 483.383 486.807, 484.564 480.508 C 485.126 477.514, 484.477 475.411, 480.507 467.358 C 476.128 458.477, 475.810 457.320, 476.174 451.603 C 476.529 446.036, 477.214 444.403, 483.184 434.892 C 486.823 429.095, 491.697 420.560, 494.015 415.926 C 502.458 399.044, 508.222 394.867, 523.500 394.558 C 533.555 394.355, 536.165 393.278, 538.491 388.378 C 542.412 380.114, 549.625 340.997, 550.174 325.016 L 550.500 315.531 544.964 313.516 C 532.626 309.023, 524.417 301.864, 521.566 293.109 C 520.740 290.574, 519.593 283.775, 519.015 278 C 518.438 272.225, 516.849 263.453, 515.483 258.507 C 512.552 247.892, 512.511 247.011, 514.612 239.934 C 515.975 235.344, 517.540 233.210, 524.729 226.133 L 533.233 217.762 532.718 213.192 C 532.042 207.197, 521.617 186.457, 510.505 169 C 498.222 149.705, 495.570 147.775, 486.534 151.550 C 479.243 154.597, 472.419 155.264, 466.412 153.518 C 461.732 152.157, 459.685 150.676, 452.705 143.604 C 448.192 139.031, 441.088 132.557, 436.917 129.217 C 426.617 120.968, 423.343 116.987, 421.419 110.370 C 419.893 105.120, 419.902 104.128, 421.551 95.369 C 423.776 83.546, 423.239 82.160, 414.786 77.890 C 405.232 73.064, 380.277 62.529, 370.218 59.075 C 354.672 53.737, 351.333 54.822, 342.739 68 C 335.392 79.266, 326.898 83.174, 314.656 80.921 C 310.652 80.184, 303.544 80.028, 294.325 80.474 C 281.189 81.110, 279.796 81.004, 275.325 79.029 C 269.054 76.259, 264.656 71.942, 260.424 64.406 C 255.197 55.097, 252.465 53.508, 244.358 55.064 M 283.232 248 C 283.232 249.925, 283.438 250.713, 283.689 249.750 C 283.941 248.787, 283.941 247.213, 283.689 246.250 C 283.438 245.287, 283.232 246.075, 283.232 248 M 290.232 439 C 290.232 440.925, 290.438 441.712, 290.689 440.750 C 290.941 439.788, 290.941 438.212, 290.689 437.250 C 290.438 436.288, 290.232 437.075, 290.232 439 M 207.939 553.438 C 203.781 554.161, 199.056 555.441, 197.439 556.282 C 190.447 559.918, 187.051 566.794, 189.433 572.494 C 191.084 576.444, 198.952 582.660, 203.894 583.918 C 207.252 584.773, 256.791 585.298, 347.500 585.440 C 384.462 585.498, 385.700 585.437, 392.828 583.197 C 400.094 580.915, 400.177 580.849, 402.531 575.526 C 404.435 571.221, 404.723 569.519, 403.983 566.941 C 402.044 560.180, 398.213 557.872, 384.392 555.141 C 375.238 553.332, 368.572 553.146, 295 552.654 C 231.887 552.233, 213.942 552.394, 207.939 553.438 M 226.500 596 C 225.400 596.473, 222.475 596.901, 220 596.952 C 212.272 597.110, 205.379 601.243, 203.175 607.039 C 201.910 610.367, 203.908 616.232, 207.671 620.236 C 213.535 626.476, 211.231 626.266, 284 627.214 C 366.620 628.291, 375.201 628.145, 380.385 625.572 C 385.394 623.086, 390 616.005, 390 610.790 C 390 607.869, 389.229 606.130, 386.725 603.397 C 381.005 597.155, 378.905 596.918, 321 595.975 C 255.545 594.910, 229.021 594.917, 226.500 596 M 235 641.801 C 227.725 642.938, 228.466 646.349, 237.921 655.243 C 259.980 675.995, 295.247 683.251, 324.701 673.099 C 335.341 669.431, 342.125 665.287, 352.279 656.250 C 356.760 652.263, 360.728 649, 361.096 649 C 362.166 649, 362.828 645.340, 362.001 644.002 C 361.431 643.080, 349.370 642.685, 312.374 642.381 C 285.493 642.160, 257.650 641.851, 250.500 641.694 C 243.350 641.538, 236.375 641.586, 235 641.801" stroke="none" fill="#3a83bb" fill-rule="evenodd"/></svg>